<?xml version="1.0" encoding="utf-8"?>
<!-- Generator: Adobe Illustrator 23.0.2, SVG Export Plug-In . SVG Version: 6.00 Build 0)  -->
<svg version="1.1" id="Layer_1" xmlns="http://www.w3.org/2000/svg" xmlns:xlink="http://www.w3.org/1999/xlink" x="0px" y="0px"
	 viewBox="0 0 240 240" style="enable-background:new 0 0 240 240;" xml:space="preserve">
<style type="text/css">
	.st0{fill-rule:evenodd;clip-rule:evenodd;}
</style>
<g>
	<path class="st0" d="M170,120c0,27.6-22.4,50-50,50c-27.6,0-50-22.4-50-50s22.4-50,50-50C147.6,70,170,92.4,170,120z M155.6,120
		c0,19.7-16,35.6-35.6,35.6c-19.7,0-35.6-15.9-35.6-35.6s16-35.6,35.6-35.6C139.7,84.4,155.6,100.3,155.6,120z"/>
	<path class="st0" d="M120,43.4c-65.8,0-100.7,42.5-113.5,62.5c-5.5,8.6-5.5,19.5,0,28.1c12.8,20,47.7,62.5,113.5,62.5
		s100.7-42.5,113.5-62.5c5.5-8.6,5.5-19.5,0-28.1C220.7,85.9,185.8,43.4,120,43.4z M19.7,114.4C31.2,96.3,62,59.1,120,59.1
		c58,0,88.8,37.3,100.3,55.3c2.2,3.5,2.2,7.8,0,11.3c-11.5,18-42.3,55.3-100.3,55.3c-58,0-88.8-37.3-100.3-55.3
		C17.4,122.1,17.4,117.9,19.7,114.4z"/>
</g>
</svg>
